HIERARCHY
ROOT Hips
{
	OFFSET 0.000000 89.005402 0.000000
	CHANNELS 6 Xposition Yposition Zposition Xrotation Yrotation Zrotation
	JOINT Spine
	{
		OFFSET 0.116900 10.681000 0.373400
		CHANNELS 3 Xrotation Yrotation Zrotation
		JOINT Spine1
		{
			OFFSET 0.000000 13.840401 0.053500
			CHANNELS 3 Xrotation Yrotation Zrotation
			JOINT Spine2
			{
				OFFSET 0.000000 14.712700 -0.366200
				CHANNELS 3 Xrotation Yrotation Zrotation
				JOINT Neck
				{
					OFFSET 0.000000 35.415497 -3.314200
					CHANNELS 3 Xrotation Yrotation Zrotation
					JOINT Head
					{
						OFFSET 0.000000 16.899200 1.218300
						CHANNELS 3 Xrotation Yrotation Zrotation
						JOINT HeadTop_End
						{
							OFFSET 0.000000 22.206207 2.192500
							CHANNELS 3 Xrotation Yrotation Zrotation
							End Site
							{
								OFFSET 0.000000 22.314178 0.000000
							}
						}
					}
				}
				JOINT LeftShoulder
				{
					OFFSET 12.896400 26.716293 -4.548400
					CHANNELS 3 Xrotation Yrotation Zrotation
					JOINT LeftArm
					{
						OFFSET 19.027000 -4.857010 -1.718400
						CHANNELS 3 Xrotation Yrotation Zrotation
						JOINT LeftForeArm
						{
							OFFSET 24.179897 0.000000 0.000000
							CHANNELS 3 Xrotation Yrotation Zrotation
							JOINT LeftHand
							{
								OFFSET 27.156403 0.000000 0.000000
								CHANNELS 3 Xrotation Yrotation Zrotation
								JOINT LeftHandIndex1
								{
									OFFSET 16.441200 0.000000 0.000000
									CHANNELS 3 Xrotation Yrotation Zrotation
									JOINT LeftHandIndex2
									{
										OFFSET 4.821899 0.000000 0.000000
										CHANNELS 3 Xrotation Yrotation Zrotation
										JOINT LeftHandIndex3
										{
											OFFSET 6.386497 0.000000 0.000000
											CHANNELS 3 Xrotation Yrotation Zrotation
											JOINT LeftHandIndex4
											{
												OFFSET 5.188988 0.000000 0.000000
												CHANNELS 3 Xrotation Yrotation Zrotation
												End Site
												{
													OFFSET -0.178703 5.185913 0.000177
												}
											}
										}
									}
								}
								JOINT LeftHandThumb1
								{
									OFFSET 6.534897 -5.032593 5.900300
									CHANNELS 3 Xrotation Yrotation Zrotation
									JOINT LeftHandThumb2
									{
										OFFSET 3.818176 -2.204422 2.204423
										CHANNELS 3 Xrotation Yrotation Zrotation
										JOINT LeftHandThumb3
										{
											OFFSET 3.252098 -1.877594 1.877601
											CHANNELS 3 Xrotation Yrotation Zrotation
											JOINT LeftHandThumb4
											{
												OFFSET 5.251778 -3.032120 3.032117
												CHANNELS 3 Xrotation Yrotation Zrotation
												End Site
												{
													OFFSET 0.000023 6.780014 0.000000
												}
											}
										}
									}
								}
							}
						}
					}
				}
				JOINT RightShoulder
				{
					OFFSET -12.896300 26.716293 -4.548400
					CHANNELS 3 Xrotation Yrotation Zrotation
					JOINT RightArm
					{
						OFFSET -19.027000 -4.857010 -1.718400
						CHANNELS 3 Xrotation Yrotation Zrotation
						JOINT RightForeArm
						{
							OFFSET -24.179897 0.000000 0.000000
							CHANNELS 3 Xrotation Yrotation Zrotation
							JOINT RightHand
							{
								OFFSET -27.156403 0.000000 0.000000
								CHANNELS 3 Xrotation Yrotation Zrotation
								JOINT RightHandThumb1
								{
									OFFSET -6.591202 -4.852203 5.988100
									CHANNELS 3 Xrotation Yrotation Zrotation
									JOINT RightHandThumb2
									{
										OFFSET -3.818176 -2.204422 2.204423
										CHANNELS 3 Xrotation Yrotation Zrotation
										JOINT RightHandThumb3
										{
											OFFSET -3.252098 -1.877594 1.877601
											CHANNELS 3 Xrotation Yrotation Zrotation
											JOINT RightHandThumb4
											{
												OFFSET -5.251778 -3.032120 3.032117
												CHANNELS 3 Xrotation Yrotation Zrotation
												End Site
												{
													OFFSET -0.000023 6.780014 0.000000
												}
											}
										}
									}
								}
								JOINT RightHandIndex1
								{
									OFFSET -16.029404 0.000000 0.000000
									CHANNELS 3 Xrotation Yrotation Zrotation
									JOINT RightHandIndex2
									{
										OFFSET -5.213303 0.000000 0.000000
										CHANNELS 3 Xrotation Yrotation Zrotation
										JOINT RightHandIndex3
										{
											OFFSET -6.386528 0.000000 0.000000
											CHANNELS 3 Xrotation Yrotation Zrotation
											JOINT RightHandIndex4
											{
												OFFSET -5.189026 0.000000 0.000000
												CHANNELS 3 Xrotation Yrotation Zrotation
												End Site
												{
													OFFSET 0.236702 5.183624 0.001972
												}
											}
										}
									}
								}
							}
						}
					}
				}
			}
		}
	}
	JOINT LeftUpLeg
	{
		OFFSET 14.073000 -7.904099 -1.463000
		CHANNELS 3 Xrotation Yrotation Zrotation
		JOINT LeftLeg
		{
			OFFSET -0.109806 -34.073280 4.093200
			CHANNELS 3 Xrotation Yrotation Zrotation
			JOINT LeftFoot
			{
				OFFSET 0.109806 -29.899420 -6.319000
				CHANNELS 3 Xrotation Yrotation Zrotation
				JOINT LeftToeBase
				{
					OFFSET 1.551100 -14.988700 20.535801
					CHANNELS 3 Xrotation Yrotation Zrotation
					JOINT LeftToe_End
					{
						OFFSET 0.221200 0.570800 13.248301
						CHANNELS 3 Xrotation Yrotation Zrotation
						End Site
						{
							OFFSET 0.000000 13.262435 0.000000
						}
					}
				}
			}
		}
	}
	JOINT RightUpLeg
	{
		OFFSET -13.839300 -7.904099 -1.463000
		CHANNELS 3 Xrotation Yrotation Zrotation
		JOINT RightLeg
		{
			OFFSET 0.109694 -34.073219 4.093300
			CHANNELS 3 Xrotation Yrotation Zrotation
			JOINT RightFoot
			{
				OFFSET -0.109694 -29.899384 -6.319200
				CHANNELS 3 Xrotation Yrotation Zrotation
				JOINT RightToeBase
				{
					OFFSET -1.551100 -14.988700 20.535801
					CHANNELS 3 Xrotation Yrotation Zrotation
					JOINT RightToe_End
					{
						OFFSET -0.221200 0.570900 13.248299
						CHANNELS 3 Xrotation Yrotation Zrotation
						End Site
						{
							OFFSET 0.000000 13.262440 0.000000
						}
					}
				}
			}
		}
	}
}
MOTION
Frames: 5
Frame Time: 0.033333
12.580238 69.871506 22.956715 -8.852459 -58.390024 -4.755500 8.690482 6.674283 -1.457189 7.687731 0.019255 -1.068489 7.729108 0.063525 -1.125358 -4.449703 15.000443 6.163402 4.757078 29.684241 -12.524259 0.000000 -0.000000 0.000000 0.763436 5.292776 -7.147597 -55.992610 14.457943 -42.687774 0.000016 -119.936851 0.000024 -2.319858 -4.837762 -9.699529 0.255312 3.378219 -45.814324 5.654098 5.847752 -88.067469 2.162143 4.544816 -50.866379 0.000000 -0.000001 0.000001 -6.141223 -11.690802 -6.761700 9.914095 42.595508 3.409889 -0.422801 8.108089 27.509091 -0.000002 -0.000001 0.000001 2.568146 6.413692 -1.052057 -43.161144 36.031676 83.833277 0.000004 104.895559 -0.000010 -5.776153 17.569779 1.062912 -7.341105 13.749654 7.412340 9.855738 -44.489103 -3.903295 -0.115792 -14.513078 -28.973867 -0.000000 0.000001 0.000003 -0.124378 -2.384787 45.108864 4.500585 -4.654541 88.071143 1.723228 -3.618382 50.920112 0.000001 0.000001 -0.000000 -25.723283 6.733437 23.554847 63.875649 -9.310677 5.984389 -37.975001 -14.776730 -19.636374 -7.930746 0.000038 0.000010 0.000000 -0.000000 -0.000000 -28.730631 1.588956 -42.560107 61.834952 -3.363002 -9.549422 -2.049201 -6.743714 14.598843 -6.359277 -0.390898 5.403922 -0.000000 0.000000 -0.000000 
11.511389 67.901016 20.166401 -8.845747 -55.916822 -2.869114 8.987732 6.634592 -2.076152 7.533882 0.023956 -1.864873 7.586202 0.068062 -1.912268 -4.599412 14.531130 5.938006 5.146116 27.265430 -11.343512 0.000000 -0.000000 -0.000000 0.933850 4.429308 -7.509395 -58.637140 12.212252 -42.849496 -0.000024 -117.899584 -0.000015 -2.542637 -4.899454 -10.137444 0.255312 3.378223 -45.814331 5.654096 5.847752 -88.067469 2.162142 4.544819 -50.866372 -0.000001 0.000001 -0.000001 -6.141223 -11.690802 -6.761705 9.914093 42.595505 3.409896 -0.422805 8.108086 27.509091 -0.000000 0.000001 -0.000000 2.285004 5.098747 -2.048497 -43.650793 35.048730 85.617890 0.000062 104.930366 -0.000079 -4.557438 17.720383 1.936067 -7.341104 13.749654 7.412338 9.855738 -44.489100 -3.903299 -0.115790 -14.513076 -28.973864 0.000001 -0.000000 -0.000001 -0.124377 -2.384789 45.108864 4.500581 -4.654540 88.071150 1.723231 -3.618384 50.920122 0.000001 -0.000002 -0.000002 -27.830856 5.703209 25.400507 63.108906 -10.643737 5.726241 -38.022734 -16.412887 -23.094097 -4.277276 0.000018 0.000000 0.000001 -0.000002 -0.000000 -25.267257 3.924981 -46.982651 62.793399 -3.895887 -9.664595 -3.532651 -5.640926 20.266933 -10.458008 -0.008987 0.793803 -0.000000 -0.000000 0.000000 
10.253920 66.576691 17.510654 -8.806421 -54.312674 -1.311007 9.091630 6.804900 -2.364004 7.290189 0.449422 -2.681971 7.336091 0.512948 -2.719406 -4.410334 14.148888 5.390666 5.262466 25.155413 -9.821820 -0.000000 0.000000 0.000001 1.035145 3.916931 -7.647301 -59.331299 10.613439 -43.223527 0.000037 -115.811089 0.000043 -2.253230 -5.281838 -10.706167 0.255312 3.378222 -45.814331 5.654096 5.847751 -88.067469 2.162142 4.544815 -50.866376 -0.000000 -0.000000 0.000002 -6.141223 -11.690802 -6.761696 9.914093 42.595512 3.409891 -0.422805 8.108086 27.509089 -0.000001 -0.000005 0.000003 2.170808 5.562406 -3.370992 -44.049833 33.328635 86.724537 0.000118 105.018427 -0.000137 -4.223999 17.513863 2.343666 -7.341104 13.749654 7.412339 9.855735 -44.489096 -3.903293 -0.115792 -14.513080 -28.973867 -0.000000 0.000001 -0.000003 -0.124378 -2.384790 45.108864 4.500580 -4.654545 88.071143 1.723232 -3.618384 50.920122 -0.000000 0.000002 0.000002 -29.799330 4.961475 27.205941 62.251772 -11.636880 5.797179 -36.419989 -18.330098 -26.175382 -4.780507 -0.000009 -0.000002 0.000000 -0.000001 -0.000000 -22.350599 3.740187 -49.730662 62.137783 -4.190251 -9.660912 -9.525366 -5.098780 25.759005 -14.359465 0.000030 -0.000002 0.000001 -0.000000 -0.000000 
8.923044 66.336952 15.095276 -8.246213 -53.050482 0.003169 8.874363 7.039420 -2.270172 6.735673 0.982284 -3.170029 6.761323 1.066095 -3.205728 -3.683832 13.867879 4.605028 5.401967 23.585038 -8.377706 -0.000000 0.000000 -0.000000 1.004296 4.111040 -7.846484 -57.955029 9.564070 -43.963032 0.000101 -113.798834 0.000105 -1.605426 -5.922223 -11.695046 0.255314 3.378222 -45.814331 5.654096 5.847754 -88.067469 2.162144 4.544816 -50.866369 -0.000001 0.000001 0.000003 -6.141223 -11.690803 -6.761707 9.914090 42.595508 3.409892 -0.422808 8.108086 27.509092 0.000001 0.000002 0.000000 2.264409 7.367547 -4.790717 -43.718822 31.345350 86.972385 0.000128 105.162066 -0.000135 -4.931815 17.095511 2.485079 -7.341104 13.749658 7.412339 9.855735 -44.489107 -3.903293 -0.115786 -14.513080 -28.973871 -0.000000 0.000001 -0.000001 -0.124378 -2.384789 45.108861 4.500582 -4.654547 88.071150 1.723228 -3.618382 50.920119 0.000000 -0.000001 -0.000001 -31.709556 3.779194 28.653371 60.291883 -11.982498 5.642061 -31.855770 -19.425374 -28.351178 -5.824378 0.000012 0.000007 0.000000 -0.000001 -0.000000 -20.977654 1.214125 -49.744380 60.138176 -4.183880 -9.488386 -15.580954 -7.492998 28.250697 -13.153265 0.000000 -0.000001 -0.000001 0.000000 0.000000 
7.588545 66.892151 12.812572 -7.022069 -51.585311 1.579472 8.488734 7.232984 -2.096773 5.960844 1.312933 -3.364020 5.967447 1.401085 -3.406353 -2.671886 13.658644 3.738687 5.553496 22.418119 -7.183382 -0.000001 -0.000000 -0.000000 0.880964 4.837280 -8.594082 -56.425941 8.181179 -44.719666 -0.000009 -111.764482 -0.000020 -1.297738 -6.908163 -13.145297 0.255312 3.378225 -45.814331 5.654097 5.847752 -88.067469 2.162148 4.544818 -50.866376 0.000002 0.000001 0.000002 -6.141224 -11.690799 -6.761701 9.914096 42.595505 3.409890 -0.422807 8.108089 27.509089 0.000001 -0.000002 0.000004 2.449328 9.271217 -5.979688 -42.945221 29.780181 86.546488 0.000229 105.368775 -0.000232 -5.786795 16.882978 2.829681 -7.341104 13.749656 7.412341 9.855738 -44.489103 -3.903297 -0.115791 -14.513078 -28.973867 0.000001 -0.000002 0.000001 -0.124377 -2.384788 45.108864 4.500581 -4.654545 88.071143 1.723230 -3.618380 50.920116 0.000000 -0.000001 -0.000000 -33.597431 2.980987 28.738369 57.121886 -11.199370 5.588168 -25.804929 -18.508713 -28.658784 -4.092692 -0.000011 -0.000000 0.000000 -0.000000 -0.000000 -20.041576 -1.384886 -49.199492 57.483357 -3.019287 -8.854317 -17.415700 -10.392403 32.358875 -7.085365 0.000032 0.000013 -0.000000 0.000000 -0.000000 
